<svg xmlns="http://www.w3.org/2000/svg" version="1.1" xmlns:xlink="http://www.w3.org/1999/xlink" xmlns:svgjs="http://svgjs.dev/svgjs" width="1440" height="5600" preserveAspectRatio="none" viewBox="0 0 1440 5600"><g mask="url(&quot;#SvgjsMask1019&quot;)" fill="none"><rect width="1440" height="5600" x="0" y="0" fill="rgba(255, 255, 255, 1)"></rect><path d="M575.11 2808.72 a133.66 133.66 0 1 0 267.32 0 a133.66 133.66 0 1 0 -267.32 0z" fill="rgba(231, 212, 228, 1)"></path><path d="M155.21 3394.51L289.79 3394.51L289.79 3538.5L155.21 3538.5z" stroke="rgba(231, 212, 228, 1)"></path><path d="M253.74 3272.84L390.42 3272.84L390.42 3399.67L253.74 3399.67z" fill="rgba(231, 212, 228, 1)"></path><path d="M508.9 5202.42a17.35 17.35 0 1 0-15.34-31.13z" fill="rgba(223, 244, 206, 1)"></path><path d="M782.11 1639.05L921.1 1639.05L921.1 1657.39L782.11 1657.39z" fill="rgba(231, 212, 228, 1)"></path><path d="M1235.28 3503.1a52.78 52.78 0 1 0-63.91 84.02z" stroke="rgba(223, 244, 206, 1)"></path><path d="M1105.68 494.82L1123.55 494.82L1123.55 512.69L1105.68 512.69z" stroke="rgba(231, 212, 228, 1)"></path><path d="M218.88 2804.09L276.93 2804.09L276.93 2807.57L218.88 2807.57z" fill="rgba(223, 244, 206, 1)"></path><path d="M641.57 3897.93a62.67 62.67 0 1 0 114.68 50.57z" stroke="rgba(194, 209, 248, 1)"></path><path d="M951.95 3811.31 a23.84 23.84 0 1 0 47.68 0 a23.84 23.84 0 1 0 -47.68 0z" fill="rgba(194, 209, 248, 1)"></path><path d="M822.27 4399.2L888.9 4399.2L888.9 4427.05L822.27 4427.05z" stroke="rgba(231, 212, 228, 1)"></path><path d="M-2.18 1128.82a114.33 114.33 0 1 0 227.5-23z" fill="rgba(231, 212, 228, 1)"></path><path d="M781.34 4183.08L848.42 4183.08L848.42 4250.16L781.34 4250.16z" stroke="rgba(231, 212, 228, 1)"></path><path d="M769.86 3724.39L838.74 3724.39L838.74 3793.27L769.86 3793.27z" stroke="rgba(231, 212, 228, 1)"></path><path d="M508.69 2417.11L647.47 2417.11L647.47 2555.89L508.69 2555.89z" fill="rgba(231, 212, 228, 1)"></path><path d="M598.5 5212.7a0.46 0.46 0 1 0-0.89-0.24z" fill="rgba(223, 244, 206, 1)"></path><path d="M978.51 498.28 a77.3 77.3 0 1 0 154.6 0 a77.3 77.3 0 1 0 -154.6 0z" stroke="rgba(194, 209, 248, 1)"></path><path d="M1157.35 1447.42a20.47 20.47 0 1 0-0.94-40.93z" stroke="rgba(194, 209, 248, 1)"></path><path d="M1172.01 4248.4L1203 4248.4L1203 4279.39L1172.01 4279.39z" fill="rgba(223, 244, 206, 1)"></path><path d="M698.17 5193.76a96.13 96.13 0 1 0 183.01 58.92z" fill="rgba(223, 244, 206, 1)"></path><path d="M339.18 4725.39L462.2 4725.39L462.2 4848.41L339.18 4848.41z" stroke="rgba(223, 244, 206, 1)"></path><path d="M917.65 1708.64L970.36 1708.64L970.36 1844.74L917.65 1844.74z" stroke="rgba(231, 212, 228, 1)"></path><path d="M513.86 1141.69a121.06 121.06 0 1 0-67.52-232.52z" fill="rgba(231, 212, 228, 1)"></path><path d="M377.82 4066.69 a66.22 66.22 0 1 0 132.44 0 a66.22 66.22 0 1 0 -132.44 0z" fill="rgba(223, 244, 206, 1)"></path><path d="M1182.45 4041.94L1260.23 4041.94L1260.23 4119.72L1182.45 4119.72z" fill="rgba(194, 209, 248, 1)"></path><path d="M1078.84 3908.01a61.07 61.07 0 1 0 122.14-1.28z" fill="rgba(223, 244, 206, 1)"></path><path d="M657 1159.5 a54.72 54.72 0 1 0 109.44 0 a54.72 54.72 0 1 0 -109.44 0z" stroke="rgba(223, 244, 206, 1)"></path><path d="M907.6 2085.97 a57.55 57.55 0 1 0 115.1 0 a57.55 57.55 0 1 0 -115.1 0z" stroke="rgba(223, 244, 206, 1)"></path><path d="M1115.52 513.99L1190.87 513.99L1190.87 589.34L1115.52 589.34z" fill="rgba(231, 212, 228, 1)"></path><path d="M-76.88 36.39a80.55 80.55 0 1 0 154.2 46.66z" fill="rgba(194, 209, 248, 1)"></path><path d="M559.47 3442.97L576.99 3442.97L576.99 3500.97L559.47 3500.97z" fill="rgba(223, 244, 206, 1)"></path><path d="M793.4 2593.54 a0.79 0.79 0 1 0 1.58 0 a0.79 0.79 0 1 0 -1.58 0z" stroke="rgba(194, 209, 248, 1)"></path><path d="M-81.45 5145.14 a93.59 93.59 0 1 0 187.18 0 a93.59 93.59 0 1 0 -187.18 0z" stroke="rgba(223, 244, 206, 1)"></path><path d="M917.67 138.92L1052.74 138.92L1052.74 200.19L917.67 200.19z" fill="rgba(194, 209, 248, 1)"></path><path d="M968.74 2018.29L1109.46 2018.29L1109.46 2124.72L968.74 2124.72z" fill="rgba(231, 212, 228, 1)"></path><path d="M1304.07 5389.13 a68.43 68.43 0 1 0 136.86 0 a68.43 68.43 0 1 0 -136.86 0z" fill="rgba(231, 212, 228, 1)"></path><path d="M1232.92 4652.88L1262.75 4652.88L1262.75 4662.69L1232.92 4662.69z" fill="rgba(231, 212, 228, 1)"></path><path d="M1358.81 3191.96L1497.51 3191.96L1497.51 3306.33L1358.81 3306.33z" fill="rgba(231, 212, 228, 1)"></path><path d="M451.64 4403.77L565.61 4403.77L565.61 4482.45L451.64 4482.45z" fill="rgba(231, 212, 228, 1)"></path><path d="M959.03 3702.47 a125.95 125.95 0 1 0 251.9 0 a125.95 125.95 0 1 0 -251.9 0z" fill="rgba(223, 244, 206, 1)"></path><path d="M526.73 1360.24 a5.87 5.87 0 1 0 11.74 0 a5.87 5.87 0 1 0 -11.74 0z" fill="rgba(231, 212, 228, 1)"></path><path d="M1324.14 5434.69L1443.77 5434.69L1443.77 5554.32L1324.14 5554.32z" fill="rgba(194, 209, 248, 1)"></path><path d="M1215.13 1204.44L1326.37 1204.44L1326.37 1315.68L1215.13 1315.68z" stroke="rgba(223, 244, 206, 1)"></path><path d="M976.16 1859.64a128.95 128.95 0 1 0 256.2-29.56z" stroke="rgba(194, 209, 248, 1)"></path><path d="M227.22 5594.8L351.5 5594.8L351.5 5648.32L227.22 5648.32z" fill="rgba(231, 212, 228, 1)"></path><path d="M247.05 2129.33 a46.15 46.15 0 1 0 92.3 0 a46.15 46.15 0 1 0 -92.3 0z" stroke="rgba(231, 212, 228, 1)"></path><path d="M-94.19 3436.13 a100.12 100.12 0 1 0 200.24 0 a100.12 100.12 0 1 0 -200.24 0z" fill="rgba(231, 212, 228, 1)"></path><path d="M1004.51 571.35L1054.09 571.35L1054.09 620.93L1004.51 620.93z" stroke="rgba(194, 209, 248, 1)"></path><path d="M858.89 4519.93 a32.01 32.01 0 1 0 64.02 0 a32.01 32.01 0 1 0 -64.02 0z" stroke="rgba(231, 212, 228, 1)"></path></g><defs><mask id="SvgjsMask1019"><rect width="1440" height="5600" fill="#ffffff"></rect></mask></defs></svg>